<svg xmlns="http://www.w3.org/2000/svg" xmlns:xlink="http://www.w3.org/1999/xlink" width="1920" zoomAndPan="magnify" viewBox="0 0 1440 1439.999935" height="1920" preserveAspectRatio="xMidYMid meet" version="1.0"><defs><clipPath id="b76efd5da7"><path d="M 720 0 C 322.355469 0 0 322.355469 0 720 C 0 1117.644531 322.355469 1440 720 1440 C 1117.644531 1440 1440 1117.644531 1440 720 C 1440 322.355469 1117.644531 0 720 0 " clip-rule="nonzero"/></clipPath><clipPath id="e996b05c89"><path d="M 143.664062 306 L 1297.277344 306 L 1297.277344 1135 L 143.664062 1135 Z M 143.664062 306 " clip-rule="nonzero"/></clipPath></defs><g clip-path="url(#b76efd5da7)"><rect x="-144" width="1728" fill="#ffffff" y="-143.999994" height="1727.999922" fill-opacity="1"/></g><g clip-path="url(#e996b05c89)"><path fill="#000000" d="M 1294.300781 325.566406 C 1288.902344 313.671875 1277.050781 306.039062 1263.988281 306.039062 L 983.6875 306.039062 C 973.878906 306.039062 964.5625 310.367188 958.238281 317.867188 L 595.328125 748.222656 L 521.820312 674.714844 C 515.574219 668.472656 507.109375 664.96875 498.28125 664.96875 L 176.953125 664.96875 C 163.367188 664.96875 151.136719 673.226562 146.066406 685.832031 C 141 698.445312 144.097656 712.867188 153.90625 722.273438 L 574.363281 1125.636719 C 580.578125 1131.59375 588.839844 1134.902344 597.40625 1134.902344 C 597.894531 1134.902344 598.382812 1134.890625 598.867188 1134.867188 C 607.953125 1134.472656 616.484375 1130.371094 622.46875 1123.527344 L 1289.046875 361.234375 C 1297.644531 351.410156 1299.695312 337.457031 1294.300781 325.566406 Z M 595.300781 1053.460938 L 259.738281 731.546875 L 484.492188 731.546875 L 573.875 820.921875 C 580.46875 827.511719 589.496094 831.035156 598.824219 830.644531 C 608.136719 830.25 616.855469 825.96875 622.863281 818.84375 L 999.164062 372.617188 L 1190.660156 372.617188 Z M 595.300781 1053.460938 " fill-opacity="1" fill-rule="nonzero"/></g></svg>