<!-- icon666.com - MILLIONS vector ICONS FREE --><svg fill="none" viewBox="0 0 24 24" xmlns="http://www.w3.org/2000/svg"><g clip-rule="evenodd" fill="rgb(0,0,0)" fill-rule="evenodd"><path d="m5.6473 16.1631c.11902.3967-.10611.8149-.50286.9339-.86582.2597-1.51185.5541-1.92469.8469-.43233.3067-.46975.5054-.46975.556s.03743.2494.46975.556c.41283.2928 1.05887.5872 1.92469.847 1.7221.5166 4.1461.847 6.85556.847 2.7095 0 5.1335-.3304 6.8556-.847.8658-.2598 1.5118-.5542 1.9247-.847.4323-.3066.4697-.5054.4697-.556s-.0374-.2493-.4697-.5559c-.4129-.2929-1.0589-.5873-1.9248-.847-.3967-.119-.6218-.5372-.5028-.9339s.5371-.6219.9339-.5029c.9438.2832 1.7622.6352 2.3614 1.0603.5798.4111 1.102 1.0016 1.102 1.7794s-.5222 1.3683-1.102 1.7795c-.5992.425-1.4176.7771-2.3614 1.0602-1.8972.5692-4.4732.9103-7.2866.9103-2.81339 0-5.38939-.3411-7.28658-.9103-.94382-.2831-1.76225-.6352-2.36147-1.0602-.57973-.4112-1.10195-1.0017-1.10195-1.7795s.52223-1.3683 1.10195-1.7794c.59922-.4251 1.41765-.7771 2.36147-1.0603.39674-.119.81485.1062.93388.5029z"></path><path d="m4.75 8.3409c0-3.93361 3.26357-7.0909 7.25-7.0909 3.9864 0 7.25 3.15729 7.25 7.0909 0 2.7644-1.8092 5.2392-3.4616 6.9433-.8429.8693-1.6831 1.5769-2.3117 2.0668-.3149.2455-.5782.4375-.7642.5691-.0931.0659-.1669.1167-.2183.1516-.0257.0174-.0458.0309-.0599.0403l-.0167.011-.0048.0032-.0016.001-.0005.0004c-.0002.0001-.0004.0002-.4107-.6276-.4103.6278-.4105.6277-.4107.6276l-.0005-.0004-.0016-.001-.0048-.0032-.0167-.011c-.0141-.0094-.0342-.0229-.0599-.0403-.0514-.0349-.1252-.0857-.2183-.1516-.186-.1316-.4493-.3236-.7642-.5691-.62855-.4899-1.4688-1.1975-2.31174-2.0668-1.65236-1.7041-3.46156-4.1789-3.46156-6.9433zm7.25 9.1591-.4103.6278c.2493.1629.5713.1629.8206 0zm0-.9146c.1518-.1101.3399-.2501.5545-.4174.5902-.4601 1.375-1.1214 2.1571-1.928 1.5976-1.6477 3.0384-3.7524 3.0384-5.8991 0-3.07035-2.5567-5.5909-5.75-5.5909-3.19327 0-5.75 2.52055-5.75 5.5909 0 2.1467 1.4408 4.2514 3.03844 5.8991.78206.8066 1.56686 1.4679 2.15706 1.928.2146.1673.4027.3073.5545.4174z"></path><path d="m8.75 8.5c0-1.79491 1.4551-3.25 3.25-3.25s3.25 1.45509 3.25 3.25c0 1.7949-1.4551 3.25-3.25 3.25s-3.25-1.4551-3.25-3.25zm3.25-1.75c-.9665 0-1.75.78351-1.75 1.75s.7835 1.75 1.75 1.75 1.75-.78351 1.75-1.75-.7835-1.75-1.75-1.75z"></path></g></svg>